HIERARCHY
ROOT hip
{
  OFFSET 0 0 0
  CHANNELS 6 Xposition Yposition Zposition Zrotation Yrotation Xrotation
  JOINT abdomen
  {
    OFFSET 0 20.6881 -0.73152
    CHANNELS 3 Zrotation Xrotation Yrotation
    JOINT chest
    {
      OFFSET 0 11.7043 -0.48768
      CHANNELS 3 Zrotation Xrotation Yrotation
      JOINT neck
      {
        OFFSET 0 22.1894 -2.19456
        CHANNELS 3 Zrotation Xrotation Yrotation
        JOINT head
        {
          OFFSET -0.24384 7.07133 1.2192
          CHANNELS 3 Zrotation Xrotation Yrotation
          JOINT leftEye
          {
            OFFSET 4.14528 8.04674 8.04672
            CHANNELS 3 Zrotation Xrotation Yrotation
            End Site
            {
              OFFSET 1 0 0
            }
          }
          JOINT rightEye
          {
            OFFSET -3.6576 8.04674 8.04672
            CHANNELS 3 Zrotation Xrotation Yrotation
            End Site
            {
              OFFSET 1 0 0
            }
          }
        }
      }
      JOINT rCollar
      {
        OFFSET -2.68224 19.2634 -4.8768
        CHANNELS 3 Zrotation Xrotation Yrotation
        JOINT rShldr
        {
          OFFSET -8.77824 -1.95073 1.46304
          CHANNELS 3 Zrotation Xrotation Yrotation
          JOINT rForeArm
          {
            OFFSET -28.1742 -1.7115 0.48768
            CHANNELS 3 Zrotation Xrotation Yrotation
            JOINT rHand
            {
              OFFSET -22.5879 0.773209 7.07136
              CHANNELS 3 Zrotation Xrotation Yrotation
              JOINT rThumb1
              {
                OFFSET -1.2192 -0.487915 3.41376
                CHANNELS 3 Zrotation Xrotation Yrotation
                JOINT rThumb2
                {
                  OFFSET -3.37035 -0.52449 3.41376
                  CHANNELS 3 Zrotation Xrotation Yrotation
                  End Site
                  {
                    OFFSET -1.78271 -1.18214 1.43049
                  }
                }
              }
              JOINT rIndex1
              {
                OFFSET -7.75947 0.938293 5.60832
                CHANNELS 3 Zrotation Xrotation Yrotation
                JOINT rIndex2
                {
                  OFFSET -2.54057 -0.884171 1.56538
                  CHANNELS 3 Zrotation Xrotation Yrotation
                  End Site
                  {
                    OFFSET -1.62519 -0.234802 1.16502
                  }
                }
              }
              JOINT rMid1
              {
                OFFSET -8.24714 1.18213 3.41376
                CHANNELS 3 Zrotation Xrotation Yrotation
                JOINT rMid2
                {
                  OFFSET -3.10165 -0.590103 1.0647
                  CHANNELS 3 Zrotation Xrotation Yrotation
                  End Site
                  {
                    OFFSET -2.48547 -0.328903 0.83742
                  }
                }
              }
              JOINT rRing1
              {
                OFFSET -8.82822 0.546677 1.51678
                CHANNELS 3 Zrotation Xrotation Yrotation
                JOINT rRing2
                {
                  OFFSET -2.60934 -0.819778 -0.0198488
                  CHANNELS 3 Zrotation Xrotation Yrotation
                  End Site
                  {
                    OFFSET -2.33842 -0.294052 0.168128
                  }
                }
              }
              JOINT rPinky1
              {
                OFFSET -8.27202 -0.0477905 -0.4584
                CHANNELS 3 Zrotation Xrotation Yrotation
                JOINT rPinky2
                {
                  OFFSET -1.82734 -0.647385 -0.700984
                  CHANNELS 3 Zrotation Xrotation Yrotation
                  End Site
                  {
                    OFFSET -1.69225 -0.51767 -0.607171
                  }
                }
              }
            }
          }
        }
      }
      JOINT lCollar
      {
        OFFSET 2.68224 19.2634 -4.8768
        CHANNELS 3 Zrotation Xrotation Yrotation
        JOINT lShldr
        {
          OFFSET 8.77824 -1.95073 1.46304
          CHANNELS 3 Zrotation Xrotation Yrotation
          JOINT lForeArm
          {
            OFFSET 28.1742 -1.7115 0.48768
            CHANNELS 3 Zrotation Xrotation Yrotation
            JOINT lHand
            {
              OFFSET 22.5879 0.773209 7.07136
              CHANNELS 3 Zrotation Xrotation Yrotation
              JOINT lThumb1
              {
                OFFSET 1.2192 -0.487915 3.41376
                CHANNELS 3 Zrotation Xrotation Yrotation
                JOINT lThumb2
                {
                  OFFSET 3.37035 -0.52449 3.41376
                  CHANNELS 3 Zrotation Xrotation Yrotation
                  End Site
                  {
                    OFFSET 1.78271 -1.18214 1.43049
                  }
                }
              }
              JOINT lIndex1
              {
                OFFSET 7.75947 0.938293 5.60832
                CHANNELS 3 Zrotation Xrotation Yrotation
                JOINT lIndex2
                {
                  OFFSET 2.54057 -0.884171 1.56538
                  CHANNELS 3 Zrotation Xrotation Yrotation
                  End Site
                  {
                    OFFSET 1.62519 -0.234802 1.16502
                  }
                }
              }
              JOINT lMid1
              {
                OFFSET 8.24714 1.18213 3.41376
                CHANNELS 3 Zrotation Xrotation Yrotation
                JOINT lMid2
                {
                  OFFSET 3.10165 -0.590103 1.0647
                  CHANNELS 3 Zrotation Xrotation Yrotation
                  End Site
                  {
                    OFFSET 2.48547 -0.328903 0.83742
                  }
                }
              }
              JOINT lRing1
              {
                OFFSET 8.82822 0.546677 1.51678
                CHANNELS 3 Zrotation Xrotation Yrotation
                JOINT lRing2
                {
                  OFFSET 2.60934 -0.819778 -0.0198488
                  CHANNELS 3 Zrotation Xrotation Yrotation
                  End Site
                  {
                    OFFSET 2.33842 -0.294052 0.168128
                  }
                }
              }
              JOINT lPinky1
              {
                OFFSET 8.27202 -0.0477905 -0.4584
                CHANNELS 3 Zrotation Xrotation Yrotation
                JOINT lPinky2
                {
                  OFFSET 1.82734 -0.647385 -0.700984
                  CHANNELS 3 Zrotation Xrotation Yrotation
                  End Site
                  {
                    OFFSET 1.69225 -0.51767 -0.607171
                  }
                }
              }
            }
          }
        }
      }
    }
  }
  JOINT rButtock
  {
    OFFSET -8.77824 4.35084 1.2192
    CHANNELS 3 Zrotation Xrotation Yrotation
    JOINT rThigh
    {
      OFFSET 0 -1.70687 -2.19456
      CHANNELS 3 Zrotation Xrotation Yrotation
      JOINT rShin
      {
        OFFSET 0 -36.8199 0.73152
        CHANNELS 3 Zrotation Xrotation Yrotation
        JOINT rFoot
        {
          OFFSET 0.73152 -45.1104 -5.12064
          CHANNELS 3 Zrotation Xrotation Yrotation
          End Site
          {
            OFFSET -1.1221 -3.69964 12.103
          }
        }
      }
    }
  }
  JOINT lButtock
  {
    OFFSET 8.77824 4.35084 1.2192
    CHANNELS 3 Zrotation Xrotation Yrotation
    JOINT lThigh
    {
      OFFSET 0 -1.70687 -2.19456
      CHANNELS 3 Zrotation Xrotation Yrotation
      JOINT lShin
      {
        OFFSET 0 -36.8199 0.73152
        CHANNELS 3 Zrotation Xrotation Yrotation
        JOINT lFoot
        {
          OFFSET -0.73152 -45.1104 -5.12064
          CHANNELS 3 Zrotation Xrotation Yrotation
          End Site
          {
            OFFSET 1.1221 -3.69964 12.103
          }
        }
      }
    }
  }
}
MOTION
Frames:	4
Frame Time:	0.03333
72.73510012582938 74.82599960286448 40.12300032472029 -169.4559783935547 62.15360641479492 -170.29299926757812 -6.718040466308594 14.157999038696289 11.863497734069824 0.7541519999504089 -9.60858154296875 3.2495198249816895 -10.198999404907227 14.123600006103516 -9.720029830932617 19.984397888183594 -26.649202346801758 -14.1318998336792 -0.0 0.0 -0.0 -0.0 0.0 -0.0 -7.576309913638613e-14 5.317099570963796e-14 1.750150046588017e-13 32.91120147705078 -0.9384219646453857 32.07019805908203 -15.731600761413574 -8.425498962402344 29.144397735595703 -0.35160398483276367 16.328203201293945 2.3648898601531982 -1.5376698803137856e-09 7.421089853743013e-10 5.64273003322846e-11 -2.6575999179101473e-09 1.2879198818538384e-09 1.234029961549865e-10 -1.5376698803137856e-09 7.421069869728569e-10 5.6422103100750576e-11 7.730909824371338 5.474879741668701 0.4173140823841095 -1.5376698803137856e-09 7.421069869728569e-10 5.643329900606453e-11 2.9055399894714355 0.9651829600334167 0.10290199518203735 -1.5376599993288664e-09 7.421069869728569e-10 5.6428497291483026e-11 10.27859878540039 0.73180091381073 0.025912316516041756 -1.5376799833433097e-09 7.421110392868968e-10 5.644089709488931e-11 2.221669912338257 -0.733487069606781 -0.208919957280159 -7.582279124224503e-14 5.315399745245246e-14 1.7482998555806706e-13 -114.01298522949219 48.427005767822266 52.14069747924805 27.784500122070312 -41.43070602416992 -86.52169799804688 0.8034490942955017 -24.48790168762207 3.6735103130340576 -8.812389706847057e-10 -4.815720044959448e-10 -7.673710000766221e-10 -1.5131499386811242e-09 -8.388240102519262e-10 -1.3386699526662937e-09 -8.812470198016342e-10 -4.815700060945005e-10 -7.673559565546384e-10 -7.730909824371338 5.474879741668701 -0.4173140823841095 -8.812369722832614e-10 -4.815700060945005e-10 -7.6736594856186e-10 -2.9055399894714355 0.9651829600334167 -0.10290199518203735 -8.812440221994677e-10 -4.815710052952227e-10 -7.673689461640265e-10 -10.27859878540039 0.73180091381073 -0.025912316516041756 -8.812359730825392e-10 -4.81573003696667e-10 -7.673729984780664e-10 -2.221669912338257 -0.733487069606781 0.208919957280159 -2.0321699480147914e-16 0.0 -3.8825099822884138e-19 -19.27309799194336 -30.715198516845703 -40.312599182128906 -0.8128358721733093 55.33000564575195 1.2441799640655518 -7.259990215301514 -4.87761926651001 -27.992399215698242 2.0321699480147914e-16 0.0 3.8825099822884138e-19 18.055198669433594 -33.47699737548828 1.744438648223877 1.4799197912216187 65.28551483154297 -1.9309499263763428 2.4494497776031494 3.343899965286255 22.875699996948242
74.07890014455484 74.55579731929878 40.77100032823838 -166.8109893798828 65.23919677734375 -167.4660186767578 -4.659910202026367 13.88479995727539 12.139798164367676 0.7722079753875732 -9.642410278320312 3.4117796421051025 -9.871511459350586 13.69729995727539 -9.06178092956543 19.078100204467773 -26.22699737548828 -13.050397872924805 -0.0 0.0 -0.0 -0.0 0.0 -0.0 2.2499198142587884e-13 6.876670457026113e-13 -2.9821197594648297e-13 29.01059913635254 -1.307350993156433 33.950096130371094 -15.828498840332031 -8.520500183105469 29.33229637145996 -0.6061630249023438 21.402599334716797 3.1605403423309326 1.9119400073569492e-12 1.0469299871473936e-09 -2.383070130118625e-10 -8.474890168981564e-13 1.8115299260657025e-09 -4.117469976083754e-10 1.9370100141913316e-12 1.046919995140172e-09 -2.383080122125847e-10 7.730909824371338 5.474879741668701 0.4173140823841095 1.9326500035748984e-12 1.046919995140172e-09 -2.3830298845339826e-10 2.9055399894714355 0.9651829600334167 0.10290199518203735 1.9393397478195684e-12 1.046919995140172e-09 -2.383080122125847e-10 10.27859878540039 0.73180091381073 0.025912316516041756 1.913689909663341e-12 1.0469299871473936e-09 -2.382990194060852e-10 2.221669912338257 -0.733487069606781 -0.208919957280159 2.2492999216666698e-13 6.876489937364394e-13 -2.9837002551817704e-13 -114.0739974975586 50.0669059753418 51.868499755859375 27.854900360107422 -41.124202728271484 -85.95649719238281 0.6695770025253296 -22.539295196533203 3.3451600074768066 1.5579999790293897e-10 -2.1173498510052013e-09 -3.260709757757496e-10 2.8541399799131284e-10 -3.6591800700591648e-09 -5.714080320018411e-10 1.5579300349788383e-10 -2.1173498510052013e-09 -3.2606797817358313e-10 -7.730909824371338 5.474879741668701 -0.4173140823841095 1.5579999790293897e-10 -2.117359843012423e-09 -3.2608296618441557e-10 -2.9055399894714355 0.9651829600334167 -0.10290199518203735 1.5579199041937386e-10 -2.1173498510052013e-09 -3.260789693815269e-10 -10.27859878540039 0.73180091381073 -0.025912316516041756 1.5580499390654978e-10 -2.1173498510052013e-09 -3.2608699074287983e-10 -2.221669912338257 -0.733487069606781 0.208919957280159 -2.0321699480147914e-16 0.0 -3.8825099822884138e-19 -19.49700164794922 -30.091501235961914 -43.235694885253906 -0.8374001383781433 55.8201904296875 1.2556699514389038 -7.0514302253723145 -4.639120101928711 -27.763198852539062 2.0321699480147914e-16 0.0 3.8825099822884138e-19 19.956298828125 -35.669795989990234 3.3654897212982178 1.9574201107025146 69.25528717041016 -2.3618004322052 2.0143496990203857 4.206019878387451 19.534900665283203
75.49344011234899 74.25789861864867 41.39400034529034 -162.7050018310547 68.85651397705078 -162.927978515625 -3.0146000385284424 13.641401290893555 12.734298706054688 0.6334959864616394 -9.625871658325195 3.6329405307769775 -9.357688903808594 13.310699462890625 -8.423548698425293 18.454200744628906 -25.8341007232666 -11.944999694824219 -0.0 0.0 -0.0 -0.0 0.0 -0.0 2.4435198330875763e-13 5.961879752901245e-13 -4.458979843344202e-13 25.867298126220703 -1.3529489040374756 36.32019805908203 -16.27589988708496 -8.951711654663086 30.24410057067871 -0.4727259576320648 19.832901000976562 2.894789934158325 5.990539730937883e-10 4.853349944156093e-10 -3.69496960805904e-10 1.0300499342363878e-09 8.378769345007697e-10 -6.498249716102578e-10 5.990789531118423e-10 4.853309421015695e-10 -3.69496960805904e-10 7.730909824371338 5.474879741668701 0.4173140823841095 5.990750118201049e-10 4.853309421015695e-10 -3.694949901600353e-10 2.9055399894714355 0.9651829600334167 0.10290199518203735 5.990820062251601e-10 4.853299984119985e-10 -3.6949798776220177e-10 10.27859878540039 0.73180091381073 0.025912316516041756 5.990559714952326e-10 4.853349944156093e-10 -3.694900219120001e-10 2.221669912338257 -0.733487069606781 -0.208919957280159 2.4423497078929213e-13 5.961710075261251e-13 -4.4603996060890716e-13 -114.13299560546875 51.335201263427734 51.44239807128906 27.888500213623047 -40.962799072265625 -85.66728973388672 0.541765034198761 -20.43120002746582 3.0012803077697754 5.067729569319113e-10 -1.9377000004539013e-09 -2.0466399408558544e-10 8.902780179731451e-10 -3.345270060961525e-09 -3.584369745457394e-10 5.067680164394517e-10 -1.9377000004539013e-09 -2.0466299488486328e-10 -7.730909824371338 5.474879741668701 -0.4173140823841095 5.067729569319113e-10 -1.937709992461123e-09 -2.0467799677348353e-10 -2.9055399894714355 0.9651829600334167 -0.10290199518203735 5.067620212351187e-10 -1.9377000004539013e-09 -2.046710023684284e-10 -10.27859878540039 0.73180091381073 -0.025912316516041756 5.067770092459511e-10 -1.9377000004539013e-09 -2.046790098519935e-10 -2.221669912338257 -0.733487069606781 0.208919957280159 -2.0321699480147914e-16 0.0 -3.8825099822884138e-19 -18.90999984741211 -29.601499557495117 -44.69929504394531 -0.8502620458602905 56.085304260253906 1.2627800703048706 -6.79578971862793 -4.803890705108643 -26.59979820251465 2.0321699480147914e-16 0.0 3.8825099822884138e-19 22.283796310424805 -37.64500427246094 6.277870178222656 2.4966301918029785 72.51510620117188 -2.8868799209594727 2.1313602924346924 3.7081706523895264 17.37230110168457
77.0047001478239 74.07209698265682 41.9410003671999 -157.3059844970703 72.47549438476562 -157.44798278808594 -1.7793898582458496 13.426199913024902 13.645999908447266 0.3373810052871704 -9.558880805969238 3.912900924682617 -8.65934944152832 12.964400291442871 -7.804719924926758 18.11429786682129 -25.47049903869629 -10.814801216125488 -0.0 0.0 -0.0 -0.0 0.0 -0.0 -1.768339841961078e-14 -2.212669880218704e-13 -2.680419905129461e-13 23.445301055908203 -1.0983095169067383 39.17930221557617 -17.038400650024414 -9.692439079284668 31.88910484313965 -0.13158398866653442 11.608599662780762 1.644819974899292 2.537539900426822e-10 -9.426759373099003e-10 -3.371450063571757e-10 4.351049798234641e-10 -1.6330299335010068e-09 -5.908299405277262e-10 2.5376001300259077e-10 -9.426759373099003e-10 -3.371439794008779e-10 7.730909824371338 5.474879741668701 0.4173140823841095 2.5375698764484866e-10 -9.426749381091781e-10 -3.371439794008779e-10 2.9055399894714355 0.9651829600334167 0.10290199518203735 2.537650090062016e-10 -9.426759373099003e-10 -3.3713998259798927e-10 10.27859878540039 0.73180091381073 0.025912316516041756 2.537509924405157e-10 -9.42673938908456e-10 -3.3712999059076765e-10 2.221669912338257 -0.733487069606781 -0.208919957280159 -1.7907899420082848e-14 -2.2127999844794022e-13 -2.681799823444492e-13 -114.17799377441406 52.22370529174805 50.83259582519531 27.891399383544922 -40.95130157470703 -85.64509582519531 0.42501100897789 -18.163402557373047 2.643289804458618 1.7168100274744802e-10 5.73774951162509e-11 -4.0315098481791267e-10 3.0143998408505013e-10 1.0291399676898294e-10 -6.997529777841294e-10 1.7167699206677156e-10 5.738029842938808e-11 -4.0314099281069105e-10 -7.730909824371338 5.474879741668701 -0.4173140823841095 1.7168300114889234e-10 5.7377099599298376e-11 -4.031499856171905e-10 -2.9055399894714355 0.9651829600334167 -0.10290199518203735 1.7166898458320645e-10 5.7378397172458406e-11 -4.031449896135797e-10 -10.27859878540039 0.73180091381073 -0.025912316516041756 1.7168300114889234e-10 5.7379299228665914e-11 -4.03146988015024e-10 -2.221669912338257 -0.733487069606781 0.208919957280159 -2.0321699480147914e-16 0.0 -3.8825099822884138e-19 -17.53679847717285 -29.31509780883789 -44.74200439453125 -0.851161003112793 56.12510299682617 1.2652299404144287 -6.462430477142334 -5.380929946899414 -24.501100540161133 2.0321699480147914e-16 0.0 3.8825099822884138e-19 25.170299530029297 -39.294002532958984 10.562599182128906 3.082369804382324 75.06509399414062 -3.4912896156311035 2.6798698902130127 1.8203200101852417 16.406803131103516
